G04 ================== begin FILE IDENTIFICATION RECORD ==================*
G04 Layout Name:  C:/Users/user/Desktop/workspace/ex2_rlc/allegro/ex2_rlc.brd*
G04 Film Name:    BOTTOM*
G04 File Format:  Gerber RS274X*
G04 File Origin:  Cadence Allegro 17.2-S038*
G04 Origin Date:  Thu Jul 11 11:35:45 2019*
G04 *
G04 Layer:  ETCH/BOTTOM*
G04 Layer:  PIN/BOTTOM*
G04 Layer:  VIA CLASS/BOTTOM*
G04 *
G04 Offset:    (0.000 0.000)*
G04 Mirror:    No*
G04 Mode:      Positive*
G04 Rotation:  0*
G04 FullContactRelief:  No*
G04 UndefLineWidth:     0.000*
G04 ================== end FILE IDENTIFICATION RECORD ====================*
%FSLAX25Y25*MOMM*%
%IR0*IPPOS*OFA0.00000B0.00000*MIA0B0*SFA1.00000B1.00000*%
%ADD11C,1.524*%
%ADD12C,1.651*%
%ADD10C,.635*%
%ADD13C,.254*%
%ADD17C,2.144*%
%ADD16C,1.91*%
%ADD15C,2.272*%
%ADD14C,1.782*%
G75*
%LPD*%
G75*
G36*
G01X2831300Y3409300D02*
G03Y3194700I-37300J-107300D01*
G02X2844800Y3185100I3303J-9648D01*
G01Y2705100D01*
X3568700D01*
Y3619500D01*
X4737100D01*
Y4102100D01*
X5334000D01*
Y3378200D01*
X5041900D01*
Y3111500D01*
X6223000D01*
Y1282700D01*
X5054600D01*
Y1016000D01*
X2933700D01*
Y749300D01*
X838200D01*
Y1739900D01*
X1169800D01*
G03X1370200I100200J38100D01*
G01X2108200D01*
Y2425700D01*
X673100D01*
Y4076700D01*
X2413000D01*
Y4330700D01*
X3048000D01*
Y3581400D01*
X2844800D01*
Y3418900D01*
G02X2831300Y3409300I-10197J48D01*
G37*
%LPC*%
G75*
G54D17*
X5588000Y2286000D03*
G54D16*
X4318000Y1778000D03*
G54D15*
X1778000Y3302000D03*
X4318000Y2794000D03*
G54D14*
X1270000Y1524000D03*
X5588000Y2032000D03*
%LPD*%
G75*
G54D10*
X495300Y558800D03*
X508000Y4445000D03*
X6413500Y508000D03*
Y4445000D03*
G54D11*
X1270000Y1524000D03*
Y1778000D03*
X5588000Y2032000D03*
Y2286000D03*
G54D12*
X1778000Y3302000D03*
X2794000D03*
X4318000Y1778000D03*
Y2794000D03*
G54D13*
G01X1270000Y1429800D02*
Y1524000D01*
G01D02*
Y1618200D01*
G01X1175800Y1524000D02*
X1270000D01*
G01D02*
X1364200D01*
G01X4318000Y1677400D02*
Y1778000D01*
G01D02*
Y1878600D01*
G01X4217400Y1778000D02*
X4318000D01*
G01D02*
X4418600D01*
G01X5588000Y1937800D02*
Y2032000D01*
G01D02*
Y2126200D01*
G01X5493800Y2032000D02*
X5588000D01*
G01D02*
X5682200D01*
M02*
