G04 ================== begin FILE IDENTIFICATION RECORD ==================*
G04 Layout Name:  C:/Users/user/Desktop/workspace/ex2_rlc/allegro/ex2_rlc.brd*
G04 Film Name:    SilkT*
G04 File Format:  Gerber RS274X*
G04 File Origin:  Cadence Allegro 17.2-S038*
G04 Origin Date:  Thu Jul 11 11:34:38 2019*
G04 *
G04 Layer:  REF DES/SILKSCREEN_TOP*
G04 Layer:  PACKAGE GEOMETRY/SILKSCREEN_TOP*
G04 Layer:  BOARD GEOMETRY/SILKSCREEN_TOP*
G04 *
G04 Offset:    (0.000 0.000)*
G04 Mirror:    No*
G04 Mode:      Positive*
G04 Rotation:  0*
G04 FullContactRelief:  No*
G04 UndefLineWidth:     0.200*
G04 ================== end FILE IDENTIFICATION RECORD ====================*
%FSLAX25Y25*MOMM*%
%IR0*IPPOS*OFA0.00000B0.00000*MIA0B0*SFA1.00000B1.00000*%
%ADD10C,.2*%
G75*
%LPD*%
G75*
G54D10*
G01X1425400Y1908000D02*
X1417600Y1903100D01*
X1412300Y1897300D01*
X1409700Y1890400D01*
X1412300Y1882700D01*
X1417600Y1876800D01*
X1425400Y1871000D01*
X1435900Y1869000D01*
X1488400D01*
G01X1409700Y1809800D02*
X1488400D01*
X1472700Y1821500D01*
G01X1409700D02*
Y1798100D01*
G01X1143000Y1905000D02*
X1397000D01*
Y1397000D01*
X1143000D01*
Y1905000D01*
G01X2400300Y3152600D02*
X2479000D01*
Y3128200D01*
X2475100Y3120400D01*
X2469800Y3115600D01*
X2459300Y3113600D01*
X2448800Y3115600D01*
X2442300Y3121400D01*
X2438300Y3128200D01*
Y3152600D01*
G01Y3128200D02*
X2400300Y3113600D01*
G01Y3054400D02*
X2479000D01*
X2463300Y3066100D01*
G01X2400300D02*
Y3042700D01*
G01X1930400Y3429000D02*
X2641600D01*
Y3175000D01*
X1930400D01*
Y3429000D01*
G01X3344700Y3482300D02*
Y3403600D01*
X3383700D01*
G01X3442900D02*
Y3482300D01*
X3431200Y3466600D01*
G01Y3403600D02*
X3454600D01*
G01X4168600Y2171700D02*
Y2093000D01*
X4144200D01*
X4136400Y2096900D01*
X4131600Y2102200D01*
X4129600Y2112700D01*
X4131600Y2123200D01*
X4137400Y2129700D01*
X4144200Y2133700D01*
X4168600D01*
G01X4144200D02*
X4129600Y2171700D01*
G01X4088900Y2106100D02*
X4083100Y2098200D01*
X4076200Y2094300D01*
X4068500Y2093000D01*
X4058700Y2095600D01*
X4051900Y2102200D01*
X4050000Y2110100D01*
X4050900Y2117900D01*
X4054800Y2124500D01*
X4074300Y2137600D01*
X4083100Y2146800D01*
X4088900Y2159900D01*
X4090800Y2171700D01*
X4050000D01*
G01X3454400Y3213100D02*
Y3390900D01*
X3657600D01*
Y3213100D01*
X3454400D01*
G01X4445000Y2641600D02*
Y1930400D01*
X4191000D01*
Y2641600D01*
X4445000D01*
G01X5842000Y2159000D02*
G03I-254000J0D01*
G01X6125400Y1814000D02*
X6135000Y1807600D01*
X6146300Y1803400D01*
X6159100D01*
X6173600Y1809800D01*
X6184900Y1820300D01*
X6192900Y1833000D01*
X6199400Y1854200D01*
X6201000Y1873300D01*
X6197700Y1892300D01*
X6192900Y1905000D01*
X6183300Y1917700D01*
X6172000Y1926200D01*
X6160800Y1930400D01*
X6149500D01*
X6138200Y1926200D01*
X6128600Y1919800D01*
X6120500Y1911400D01*
G01X6031300Y1930400D02*
Y1803400D01*
X6050600Y1828800D01*
G01Y1930400D02*
X6012000D01*
M02*
