G04 ================== begin FILE IDENTIFICATION RECORD ==================*
G04 Layout Name:  C:/Users/user/Desktop/workspace/ex2_rlc/allegro/ex2_rlc.brd*
G04 Film Name:    SilkB*
G04 File Format:  Gerber RS274X*
G04 File Origin:  Cadence Allegro 17.2-S038*
G04 Origin Date:  Thu Jul 11 11:34:38 2019*
G04 *
G04 Layer:  REF DES/SILKSCREEN_BOTTOM*
G04 Layer:  PACKAGE GEOMETRY/SILKSCREEN_BOTTOM*
G04 Layer:  BOARD GEOMETRY/SILKSCREEN_BOTTOM*
G04 *
G04 Offset:    (0.000 0.000)*
G04 Mirror:    No*
G04 Mode:      Positive*
G04 Rotation:  0*
G04 FullContactRelief:  No*
G04 UndefLineWidth:     0.200*
G04 ================== end FILE IDENTIFICATION RECORD ====================*
%FSLAX25Y25*MOMM*%
%IR0*IPPOS*OFA0.00000B0.00000*MIA0B0*SFA1.00000B1.00000*%
%ADD10C,.2*%
G75*
%LPD*%
G75*
G54D10*
G01X4607200Y1518700D02*
X4603100Y1521900D01*
X4598400Y1524000D01*
X4593000D01*
X4586900Y1520800D01*
X4582200Y1515500D01*
X4578800Y1509200D01*
X4576100Y1498600D01*
X4575400Y1489100D01*
X4576700Y1479500D01*
X4578800Y1473200D01*
X4582800Y1466800D01*
X4587600Y1462600D01*
X4592300Y1460500D01*
X4597000D01*
X4601800Y1462600D01*
X4605800Y1465800D01*
X4609200Y1470000D01*
G01X4648100Y1460500D02*
X4642700Y1461600D01*
X4638000Y1465800D01*
X4633900Y1472100D01*
X4631200Y1479500D01*
X4629800Y1488000D01*
Y1496500D01*
X4631200Y1505000D01*
X4633900Y1512400D01*
X4638000Y1518700D01*
X4642700Y1522900D01*
X4648100Y1524000D01*
X4653500Y1522900D01*
X4658200Y1518700D01*
X4662300Y1512400D01*
X4665000Y1505000D01*
X4666400Y1496500D01*
Y1488000D01*
X4665000Y1479500D01*
X4662300Y1472100D01*
X4658200Y1465800D01*
X4653500Y1461600D01*
X4648100Y1460500D01*
G01X4718800Y1518700D02*
X4714700Y1521900D01*
X4710000Y1524000D01*
X4704600D01*
X4698500Y1520800D01*
X4693800Y1515500D01*
X4690400Y1509200D01*
X4687700Y1498600D01*
X4687000Y1489100D01*
X4688300Y1479500D01*
X4690400Y1473200D01*
X4694400Y1466800D01*
X4699200Y1462600D01*
X4703900Y1460500D01*
X4708600D01*
X4713400Y1462600D01*
X4717400Y1465800D01*
X4720800Y1470000D01*
G01X4745500Y1460500D02*
Y1524000D01*
G01X4773900D02*
Y1460500D01*
G01Y1492200D02*
X4745500D01*
G01X4798600Y1460500D02*
X4815500Y1524000D01*
X4832400Y1460500D01*
G01X4826300Y1482700D02*
X4804700D01*
G01X4857800Y1460500D02*
Y1524000D01*
X4874700D01*
X4880100Y1520800D01*
X4883500Y1516600D01*
X4884800Y1508100D01*
X4883500Y1499700D01*
X4879400Y1494400D01*
X4874700Y1491200D01*
X4857800D01*
G01X4874700D02*
X4884800Y1460500D01*
G01X4909500D02*
Y1524000D01*
X4927100Y1471100D01*
X4944700Y1524000D01*
Y1460500D01*
G01X5025800Y1513400D02*
X5029900Y1519800D01*
X5034600Y1522900D01*
X5040100Y1524000D01*
X5046800Y1521900D01*
X5051600Y1516600D01*
X5052900Y1510200D01*
X5052200Y1503900D01*
X5049500Y1498600D01*
X5036000Y1488000D01*
X5029900Y1480600D01*
X5025800Y1470000D01*
X5024500Y1460500D01*
X5052900D01*
G01X5094500Y1524000D02*
X5089100Y1521900D01*
X5085000Y1516600D01*
X5082300Y1510200D01*
X5080300Y1501800D01*
X5079600Y1492200D01*
X5080300Y1482700D01*
X5082300Y1474300D01*
X5085000Y1467900D01*
X5089100Y1462600D01*
X5094500Y1460500D01*
X5099900Y1462600D01*
X5104000Y1467900D01*
X5106700Y1474300D01*
X5108700Y1482700D01*
X5109400Y1492200D01*
X5108700Y1501800D01*
X5106700Y1510200D01*
X5104000Y1516600D01*
X5099900Y1521900D01*
X5094500Y1524000D01*
G01X5150300Y1460500D02*
Y1524000D01*
X5142200Y1511300D01*
G01Y1460500D02*
X5158400D01*
G01X5194600Y1467900D02*
X5199300Y1462600D01*
X5204700Y1460500D01*
X5210200Y1462600D01*
X5214900Y1469000D01*
X5218300Y1478500D01*
X5219600Y1488000D01*
Y1499700D01*
X5218300Y1509200D01*
X5214900Y1517600D01*
X5210800Y1521900D01*
X5206100Y1524000D01*
X5200700Y1521900D01*
X5196600Y1517600D01*
X5193900Y1511300D01*
X5192600Y1502800D01*
X5193900Y1495400D01*
X5197300Y1488000D01*
X5201400Y1483800D01*
X5206100Y1482700D01*
X5211500Y1484800D01*
X5215600Y1490100D01*
X5219600Y1499700D01*
G01X5317700Y1524000D02*
X5312300Y1521900D01*
X5308200Y1516600D01*
X5305500Y1510200D01*
X5303500Y1501800D01*
X5302800Y1492200D01*
X5303500Y1482700D01*
X5305500Y1474300D01*
X5308200Y1467900D01*
X5312300Y1462600D01*
X5317700Y1460500D01*
X5323100Y1462600D01*
X5327200Y1467900D01*
X5329900Y1474300D01*
X5331900Y1482700D01*
X5332600Y1492200D01*
X5331900Y1501800D01*
X5329900Y1510200D01*
X5327200Y1516600D01*
X5323100Y1521900D01*
X5317700Y1524000D01*
G01X5372100Y1460500D02*
X5373500Y1474300D01*
X5375500Y1485900D01*
X5378200Y1496500D01*
X5381600Y1508100D01*
X5387000Y1524000D01*
X5360000D01*
G01X5485100Y1460500D02*
Y1524000D01*
X5477000Y1511300D01*
G01Y1460500D02*
X5493200D01*
G01X5540900D02*
Y1524000D01*
X5532800Y1511300D01*
G01Y1460500D02*
X5549000D01*
G01X5638300Y1469000D02*
X5643700Y1463700D01*
X5649800Y1460500D01*
X5655200D01*
X5660600Y1463700D01*
X5664700Y1469000D01*
X5666700Y1476400D01*
X5665400Y1483800D01*
X5662000Y1490100D01*
X5655900Y1494400D01*
X5647800Y1496500D01*
X5643000Y1500700D01*
X5641000Y1508100D01*
X5642400Y1515500D01*
X5645700Y1520800D01*
X5650500Y1524000D01*
X5655200D01*
X5659900Y1521900D01*
X5664000Y1516600D01*
G01X5688000Y1524000D02*
X5697500Y1460500D01*
X5708300Y1524000D01*
X5719100Y1460500D01*
X5728600Y1524000D01*
G01X5749900Y1469000D02*
X5755300Y1463700D01*
X5761400Y1460500D01*
X5766800D01*
X5772200Y1463700D01*
X5776300Y1469000D01*
X5778300Y1476400D01*
X5777000Y1483800D01*
X5773600Y1490100D01*
X5767500Y1494400D01*
X5759400Y1496500D01*
X5754600Y1500700D01*
X5752600Y1508100D01*
X5754000Y1515500D01*
X5757300Y1520800D01*
X5762100Y1524000D01*
X5766800D01*
X5771500Y1521900D01*
X5775600Y1516600D01*
G01X5805700Y1460500D02*
Y1524000D01*
G01X5834100D02*
Y1460500D01*
G01Y1492200D02*
X5805700D01*
G01X5867600Y1524000D02*
X5883800D01*
G01X5875700D02*
Y1460500D01*
G01X5867600D02*
X5883800D01*
G01X5915900D02*
Y1524000D01*
X5947100Y1460500D01*
Y1524000D01*
G01X4578800Y1381800D02*
Y1445300D01*
X4595700D01*
X4601100Y1442100D01*
X4604500Y1437900D01*
X4605800Y1429400D01*
X4604500Y1421000D01*
X4600400Y1415700D01*
X4595700Y1412500D01*
X4578800D01*
G01X4595700D02*
X4605800Y1381800D01*
G01X4638000Y1410400D02*
X4659600D01*
X4657600Y1417800D01*
X4654200Y1422000D01*
X4649500Y1424100D01*
X4644700Y1423100D01*
X4640700Y1419900D01*
X4638000Y1412500D01*
X4636600Y1406100D01*
Y1399800D01*
X4638000Y1393400D01*
X4641300Y1387100D01*
X4645400Y1382900D01*
X4650100Y1381800D01*
X4654900Y1383900D01*
X4659600Y1390300D01*
G01X4691700Y1424100D02*
X4703900Y1381800D01*
X4716100Y1424100D01*
G01X4759700Y1379700D02*
X4758300Y1380700D01*
Y1382900D01*
X4759700Y1383900D01*
X4761100Y1382900D01*
Y1380700D01*
X4759700Y1379700D01*
G01X4871300Y1445300D02*
X4865900Y1443200D01*
X4861800Y1437900D01*
X4859100Y1431500D01*
X4857100Y1423100D01*
X4856400Y1413500D01*
X4857100Y1404000D01*
X4859100Y1395600D01*
X4861800Y1389200D01*
X4865900Y1383900D01*
X4871300Y1381800D01*
X4876700Y1383900D01*
X4880800Y1389200D01*
X4883500Y1395600D01*
X4885500Y1404000D01*
X4886200Y1413500D01*
X4885500Y1423100D01*
X4883500Y1431500D01*
X4880800Y1437900D01*
X4876700Y1443200D01*
X4871300Y1445300D01*
G01X4927100Y1381800D02*
Y1445300D01*
X4919000Y1432600D01*
G01Y1381800D02*
X4935200D01*
G01X5933800Y1836200D02*
X5937900Y1839400D01*
X5942600Y1841500D01*
X5948000D01*
X5954100Y1838300D01*
X5958800Y1833000D01*
X5962200Y1826700D01*
X5964900Y1816100D01*
X5965600Y1806600D01*
X5964300Y1797000D01*
X5962200Y1790700D01*
X5958200Y1784300D01*
X5953400Y1780100D01*
X5948700Y1778000D01*
X5944000D01*
X5939200Y1780100D01*
X5935200Y1783300D01*
X5931800Y1787500D01*
G01X5892900Y1778000D02*
X5898300Y1779100D01*
X5903000Y1783300D01*
X5907100Y1789600D01*
X5909800Y1797000D01*
X5911200Y1805500D01*
Y1814000D01*
X5909800Y1822500D01*
X5907100Y1829900D01*
X5903000Y1836200D01*
X5898300Y1840400D01*
X5892900Y1841500D01*
X5887500Y1840400D01*
X5882800Y1836200D01*
X5878700Y1829900D01*
X5876000Y1822500D01*
X5874600Y1814000D01*
Y1805500D01*
X5876000Y1797000D01*
X5878700Y1789600D01*
X5882800Y1783300D01*
X5887500Y1779100D01*
X5892900Y1778000D01*
G01X5822200Y1836200D02*
X5826300Y1839400D01*
X5831000Y1841500D01*
X5836400D01*
X5842500Y1838300D01*
X5847200Y1833000D01*
X5850600Y1826700D01*
X5853300Y1816100D01*
X5854000Y1806600D01*
X5852700Y1797000D01*
X5850600Y1790700D01*
X5846600Y1784300D01*
X5841800Y1780100D01*
X5837100Y1778000D01*
X5832400D01*
X5827600Y1780100D01*
X5823600Y1783300D01*
X5820200Y1787500D01*
G01X5795500Y1778000D02*
Y1841500D01*
G01X5767100D02*
Y1778000D01*
G01Y1809700D02*
X5795500D01*
G01X5742400Y1778000D02*
X5725500Y1841500D01*
X5708600Y1778000D01*
G01X5714700Y1800200D02*
X5736300D01*
G01X5683200Y1778000D02*
Y1841500D01*
X5666300D01*
X5660900Y1838300D01*
X5657500Y1834100D01*
X5656200Y1825600D01*
X5657500Y1817200D01*
X5661600Y1811900D01*
X5666300Y1808700D01*
X5683200D01*
G01X5666300D02*
X5656200Y1778000D01*
G01X5631500D02*
Y1841500D01*
X5613900Y1788600D01*
X5596300Y1841500D01*
Y1778000D01*
G01X5516500D02*
Y1841500D01*
G01X5488100D02*
Y1778000D01*
G01Y1809700D02*
X5516500D01*
G01X5460000Y1778000D02*
Y1841500D01*
X5443100D01*
X5437700Y1838300D01*
X5434300Y1834100D01*
X5433000Y1825600D01*
X5434300Y1817200D01*
X5438400Y1811900D01*
X5443100Y1808700D01*
X5460000D01*
G01X5443100D02*
X5433000Y1778000D01*
G01X5405600D02*
Y1841500D01*
X5392100D01*
X5386600Y1838300D01*
X5382600Y1834100D01*
X5379200Y1827700D01*
X5376500Y1820300D01*
X5375800Y1809700D01*
X5376500Y1799200D01*
X5379200Y1791800D01*
X5382600Y1785400D01*
X5386600Y1781200D01*
X5392100Y1778000D01*
X5405600D01*
G01X5292000Y1830900D02*
X5287900Y1837300D01*
X5283200Y1840400D01*
X5277700Y1841500D01*
X5271000Y1839400D01*
X5266200Y1834100D01*
X5264900Y1827700D01*
X5265600Y1821400D01*
X5268300Y1816100D01*
X5281800Y1805500D01*
X5287900Y1798100D01*
X5292000Y1787500D01*
X5293300Y1778000D01*
X5264900D01*
G01X5223300Y1841500D02*
X5228700Y1839400D01*
X5232800Y1834100D01*
X5235500Y1827700D01*
X5237500Y1819300D01*
X5238200Y1809700D01*
X5237500Y1800200D01*
X5235500Y1791800D01*
X5232800Y1785400D01*
X5228700Y1780100D01*
X5223300Y1778000D01*
X5217900Y1780100D01*
X5213800Y1785400D01*
X5211100Y1791800D01*
X5209100Y1800200D01*
X5208400Y1809700D01*
X5209100Y1819300D01*
X5211100Y1827700D01*
X5213800Y1834100D01*
X5217900Y1839400D01*
X5223300Y1841500D01*
G01X5167500Y1778000D02*
Y1841500D01*
X5175600Y1828800D01*
G01Y1778000D02*
X5159400D01*
G01X5123200Y1785400D02*
X5118500Y1780100D01*
X5113100Y1778000D01*
X5107600Y1780100D01*
X5102900Y1786500D01*
X5099500Y1796000D01*
X5098200Y1805500D01*
Y1817200D01*
X5099500Y1826700D01*
X5102900Y1835100D01*
X5107000Y1839400D01*
X5111700Y1841500D01*
X5117100Y1839400D01*
X5121200Y1835100D01*
X5123900Y1828800D01*
X5125200Y1820300D01*
X5123900Y1812900D01*
X5120500Y1805500D01*
X5116400Y1801300D01*
X5111700Y1800200D01*
X5106300Y1802300D01*
X5102200Y1807600D01*
X5098200Y1817200D01*
G01X5000100Y1841500D02*
X5005500Y1839400D01*
X5009600Y1834100D01*
X5012300Y1827700D01*
X5014300Y1819300D01*
X5015000Y1809700D01*
X5014300Y1800200D01*
X5012300Y1791800D01*
X5009600Y1785400D01*
X5005500Y1780100D01*
X5000100Y1778000D01*
X4994700Y1780100D01*
X4990600Y1785400D01*
X4987900Y1791800D01*
X4985900Y1800200D01*
X4985200Y1809700D01*
X4985900Y1819300D01*
X4987900Y1827700D01*
X4990600Y1834100D01*
X4994700Y1839400D01*
X5000100Y1841500D01*
G01X4945700Y1778000D02*
X4944300Y1791800D01*
X4942300Y1803400D01*
X4939600Y1814000D01*
X4936200Y1825600D01*
X4930800Y1841500D01*
X4957800D01*
G01X4832700Y1778000D02*
Y1841500D01*
X4840800Y1828800D01*
G01Y1778000D02*
X4824600D01*
G01X4776900D02*
Y1841500D01*
X4785000Y1828800D01*
G01Y1778000D02*
X4768800D01*
G01X4679500Y1786500D02*
X4674100Y1781200D01*
X4668000Y1778000D01*
X4662600D01*
X4657200Y1781200D01*
X4653100Y1786500D01*
X4651100Y1793900D01*
X4652400Y1801300D01*
X4655800Y1807600D01*
X4661900Y1811900D01*
X4670000Y1814000D01*
X4674800Y1818200D01*
X4676800Y1825600D01*
X4675400Y1833000D01*
X4672100Y1838300D01*
X4667300Y1841500D01*
X4662600D01*
X4657900Y1839400D01*
X4653800Y1834100D01*
G01X4629800Y1841500D02*
X4620300Y1778000D01*
X4609500Y1841500D01*
X4598700Y1778000D01*
X4589200Y1841500D01*
G01X4567900Y1786500D02*
X4562500Y1781200D01*
X4556400Y1778000D01*
X4551000D01*
X4545600Y1781200D01*
X4541500Y1786500D01*
X4539500Y1793900D01*
X4540800Y1801300D01*
X4544200Y1807600D01*
X4550300Y1811900D01*
X4558400Y1814000D01*
X4563200Y1818200D01*
X4565200Y1825600D01*
X4563800Y1833000D01*
X4560500Y1838300D01*
X4555700Y1841500D01*
X4551000D01*
X4546300Y1839400D01*
X4542200Y1834100D01*
G01X4512100Y1778000D02*
Y1841500D01*
G01X4483700D02*
Y1778000D01*
G01Y1809700D02*
X4512100D01*
G01X4450200Y1841500D02*
X4434000D01*
G01X4442100D02*
Y1778000D01*
G01X4450200D02*
X4434000D01*
G01X4401900D02*
Y1841500D01*
X4370700Y1778000D01*
Y1841500D01*
G01X5962200Y1651000D02*
Y1714500D01*
X5945300D01*
X5939900Y1711300D01*
X5936500Y1707100D01*
X5935200Y1698600D01*
X5936500Y1690200D01*
X5940600Y1684900D01*
X5945300Y1681700D01*
X5962200D01*
G01X5945300D02*
X5935200Y1651000D01*
G01X5903000Y1679600D02*
X5881400D01*
X5883400Y1687000D01*
X5886800Y1691200D01*
X5891500Y1693300D01*
X5896300Y1692300D01*
X5900300Y1689100D01*
X5903000Y1681700D01*
X5904400Y1675300D01*
Y1669000D01*
X5903000Y1662600D01*
X5899700Y1656300D01*
X5895600Y1652100D01*
X5890900Y1651000D01*
X5886100Y1653100D01*
X5881400Y1659500D01*
G01X5849300Y1693300D02*
X5837100Y1651000D01*
X5824900Y1693300D01*
G01X5781300Y1648900D02*
X5782700Y1649900D01*
Y1652100D01*
X5781300Y1653100D01*
X5779900Y1652100D01*
Y1649900D01*
X5781300Y1648900D01*
G01X5669700Y1714500D02*
X5675100Y1712400D01*
X5679200Y1707100D01*
X5681900Y1700700D01*
X5683900Y1692300D01*
X5684600Y1682700D01*
X5683900Y1673200D01*
X5681900Y1664800D01*
X5679200Y1658400D01*
X5675100Y1653100D01*
X5669700Y1651000D01*
X5664300Y1653100D01*
X5660200Y1658400D01*
X5657500Y1664800D01*
X5655500Y1673200D01*
X5654800Y1682700D01*
X5655500Y1692300D01*
X5657500Y1700700D01*
X5660200Y1707100D01*
X5664300Y1712400D01*
X5669700Y1714500D01*
G01X5613900Y1651000D02*
Y1714500D01*
X5622000Y1701800D01*
G01Y1651000D02*
X5605800D01*
M02*
